INSIDE.MAN.2006.DvDRip.Xvid..avi

Format                           : AVI
Format/Info                      : Audio Video Interleave
Format profile                   : OpenDML
File size                        : 1.95 GiB
Duration                         : 2h 8mn
Overall bit rate                 : 2 171 Kbps
Writing application              : Lavf52.39.0

Video
ID                               : 0
Format                           : xvid
Codec ID                         : xvid
Duration                         : 2h 8mn
Bit rate                         : 1 965 Kbps
Width                            : 720 pixels
Height                           : 480 pixels
Display aspect ratio             : 3:2
Frame rate                       : 30.000 fps
Standard                         : NTSC
Bits/(Pixel*Frame)               : 0.190
Stream size                      : 1.77 GiB (91%)

Audio
ID                               : 1
Format                           : MPEG Audio
Format version                   : Version 1
Format profile                   : Layer 3
Mode                             : Joint stereo
Mode extension                   : MS Stereo
Codec ID                         : 55
Codec ID/Hint                    : MP3
Duration                         : 2mn 17s
Bit rate mode                    : Constant
Bit rate                         : 192 Kbps
Channel(s)                       : 2 channels
Sampling rate                    : 48.0 KHz
Compression mode                 : Lossy
Stream size                      : 3.15 MiB (0%)
Alignment                        : Aligned on interleaves
Interleave, duration             : 1348 ms (40.44 video frames)
Writing library                  : LAME3.98.2

